<svg width="22" height="22" viewBox="0 0 22 22" fill="none" xmlns="http://www.w3.org/2000/svg">
<g opacity="0.3">
<path d="M18.4094 13.9333L19.5113 14.5942C19.5793 14.6349 19.6355 14.6925 19.6746 14.7614C19.7137 14.8304 19.7342 14.9082 19.7342 14.9875C19.7342 15.0667 19.7137 15.1446 19.6746 15.2135C19.6355 15.2824 19.5793 15.34 19.5113 15.3807L11.4721 20.2042C11.3295 20.2899 11.1664 20.3351 11 20.3351C10.8337 20.3351 10.6705 20.2899 10.5279 20.2042L2.48878 15.3807C2.42081 15.34 2.36454 15.2824 2.32547 15.2135C2.2864 15.1446 2.26587 15.0667 2.26587 14.9875C2.26587 14.9082 2.2864 14.8304 2.32547 14.7614C2.36454 14.6925 2.42081 14.6349 2.48878 14.5942L3.59061 13.9333L11 18.3791L18.4094 13.9333ZM18.4094 9.62496L19.5113 10.2859C19.5793 10.3266 19.6355 10.3842 19.6746 10.4531C19.7137 10.522 19.7342 10.5999 19.7342 10.6791C19.7342 10.7584 19.7137 10.8362 19.6746 10.9051C19.6355 10.9741 19.5793 11.0317 19.5113 11.0724L11 16.1791L2.48878 11.0724C2.42081 11.0317 2.36454 10.9741 2.32547 10.9051C2.2864 10.8362 2.26587 10.7584 2.26587 10.6791C2.26587 10.5999 2.2864 10.522 2.32547 10.4531C2.36454 10.3842 2.42081 10.3266 2.48878 10.2859L3.59061 9.62496L11 14.0708L18.4094 9.62496ZM11.4712 1.19988L19.5113 6.02338C19.5793 6.06407 19.6355 6.12169 19.6746 6.19061C19.7137 6.25953 19.7342 6.3374 19.7342 6.41663C19.7342 6.49585 19.7137 6.57372 19.6746 6.64265C19.6355 6.71157 19.5793 6.76919 19.5113 6.80988L11 11.9166L2.48878 6.80988C2.42081 6.76919 2.36454 6.71157 2.32547 6.64265C2.2864 6.57372 2.26587 6.49585 2.26587 6.41663C2.26587 6.3374 2.2864 6.25953 2.32547 6.19061C2.36454 6.12169 2.42081 6.06407 2.48878 6.02338L10.5279 1.19988C10.6705 1.11422 10.8337 1.06897 11 1.06897C11.1664 1.06897 11.3295 1.11422 11.4721 1.19988H11.4712ZM11 3.0543L5.39645 6.41663L11 9.77896L16.6036 6.41663L11 3.0543Z" fill="black"/>
</g>
</svg>
