<svg width="22" height="22" viewBox="0 0 22 22" fill="none" xmlns="http://www.w3.org/2000/svg">
<g opacity="0.3">
<path d="M17.4167 7.33337H19.25C19.4931 7.33337 19.7263 7.42995 19.8982 7.60186C20.0701 7.77377 20.1667 8.00693 20.1667 8.25004V19.25C20.1667 19.4932 20.0701 19.7263 19.8982 19.8982C19.7263 20.0701 19.4931 20.1667 19.25 20.1667H11.9167C11.6736 20.1667 11.4404 20.0701 11.2685 19.8982C11.0966 19.7263 11 19.4932 11 19.25V18.3334H3.66667C3.42355 18.3334 3.19039 18.2368 3.01849 18.0649C2.84658 17.893 2.75 17.6598 2.75 17.4167V2.75004C2.75 2.50693 2.84658 2.27377 3.01849 2.10186C3.19039 1.92995 3.42355 1.83337 3.66667 1.83337H16.5C16.7431 1.83337 16.9763 1.92995 17.1482 2.10186C17.3201 2.27377 17.4167 2.50693 17.4167 2.75004V7.33337ZM15.5833 7.33337V3.66671H4.58333V16.5H11V8.25004C11 8.00693 11.0966 7.77377 11.2685 7.60186C11.4404 7.42995 11.6736 7.33337 11.9167 7.33337H15.5833ZM12.8333 9.16671V18.3334H18.3333V9.16671H12.8333Z" fill="black"/>
</g>
</svg>
