<svg width="20" height="20" viewBox="0 0 20 20" fill="none" xmlns="http://www.w3.org/2000/svg">
<path d="M10.8335 10.8333V15.4875L12.3568 13.9641L13.536 15.1433L10.0002 18.6783L6.46432 15.1433L7.64349 13.9641L9.16682 15.4875V10.8333H10.8335ZM10.0002 1.66663C11.431 1.66669 12.8119 2.19255 13.8803 3.14422C14.9488 4.0959 15.6302 5.40701 15.7952 6.82829C16.832 7.11106 17.7366 7.74921 18.3507 8.63123C18.9648 9.51325 19.2494 10.583 19.1548 11.6536C19.0602 12.7242 18.5924 13.7275 17.8331 14.4881C17.0738 15.2488 16.0714 15.7184 15.001 15.815V14.1366C15.3845 14.0819 15.7532 13.9513 16.0856 13.7524C16.4181 13.5536 16.7076 13.2906 16.9373 12.9786C17.167 12.6667 17.3322 12.3121 17.4234 11.9357C17.5145 11.5592 17.5298 11.1683 17.4683 10.7859C17.4067 10.4034 17.2696 10.037 17.0649 9.70817C16.8602 9.37929 16.5921 9.09447 16.2762 8.87035C15.9602 8.64623 15.6028 8.48728 15.2247 8.4028C14.8467 8.31832 14.4556 8.30999 14.0743 8.37829C14.2048 7.7707 14.1978 7.1416 14.0537 6.53709C13.9096 5.93257 13.6321 5.36795 13.2415 4.88457C12.8509 4.40119 12.3572 4.0113 11.7964 3.74345C11.2356 3.47561 10.622 3.3366 10.0006 3.3366C9.37912 3.3366 8.76553 3.47561 8.20476 3.74345C7.64399 4.0113 7.15023 4.40119 6.75966 4.88457C6.36908 5.36795 6.09158 5.93257 5.94747 6.53709C5.80337 7.1416 5.79631 7.7707 5.92682 8.37829C5.16654 8.23552 4.38067 8.40061 3.74211 8.83726C3.10355 9.27391 2.6646 9.94634 2.52182 10.7066C2.37905 11.4669 2.54414 12.2528 2.98079 12.8913C3.41744 13.5299 4.08987 13.9689 4.85016 14.1116L5.00016 14.1366V15.815C3.9297 15.7186 2.92716 15.249 2.16777 14.4885C1.40837 13.7279 0.940428 12.7246 0.845718 11.654C0.751007 10.5834 1.03556 9.51353 1.64963 8.63144C2.2637 7.74935 3.16824 7.11111 4.20516 6.82829C4.36991 5.40694 5.05133 4.09572 6.11981 3.14401C7.18828 2.19231 8.56929 1.66651 10.0002 1.66663Z" fill="white"/>
</svg>
