<svg width="20" height="20" viewBox="0 0 20 20" fill="none" xmlns="http://www.w3.org/2000/svg">
<path d="M12.3565 6.46415L7.64313 11.1783C7.56353 11.2552 7.50005 11.3471 7.45637 11.4488C7.4127 11.5505 7.38971 11.6598 7.38875 11.7705C7.38779 11.8811 7.40887 11.9909 7.45077 12.0933C7.49267 12.1957 7.55455 12.2887 7.6328 12.367C7.71104 12.4452 7.80408 12.5071 7.9065 12.549C8.00891 12.5909 8.11864 12.612 8.22929 12.611C8.33994 12.6101 8.44929 12.5871 8.55096 12.5434C8.65263 12.4997 8.74459 12.4362 8.82146 12.3567L13.5356 7.64332C14.0045 7.17444 14.2679 6.5385 14.2679 5.8754C14.2679 5.21231 14.0045 4.57637 13.5356 4.10749C13.0667 3.63861 12.4308 3.37519 11.7677 3.37519C11.1046 3.37519 10.4687 3.63861 9.99979 4.10749L5.28562 8.82165C4.89069 9.20676 4.57615 9.66645 4.36026 10.1741C4.14436 10.6817 4.03141 11.2271 4.02796 11.7787C4.0245 12.3303 4.13061 12.8771 4.34012 13.3874C4.54964 13.8977 4.85839 14.3613 5.24847 14.7513C5.63855 15.1413 6.10219 15.45 6.6125 15.6595C7.12281 15.8689 7.66963 15.9749 8.22124 15.9714C8.77284 15.9679 9.31826 15.8548 9.82584 15.6389C10.3334 15.4229 10.7931 15.1083 11.1781 14.7133L15.8923 9.99999L17.0706 11.1783L12.3565 15.8925C11.8148 16.4342 11.1717 16.8639 10.4639 17.1571C9.75612 17.4502 8.99754 17.6011 8.23146 17.6011C7.46538 17.6011 6.70679 17.4502 5.99902 17.1571C5.29126 16.8639 4.64816 16.4342 4.10646 15.8925C3.56476 15.3508 3.13505 14.7077 2.84189 13.9999C2.54872 13.2922 2.39783 12.5336 2.39783 11.7675C2.39783 11.0014 2.54872 10.2428 2.84189 9.53505C3.13505 8.82728 3.56476 8.18419 4.10646 7.64249L8.82146 2.92915C9.6073 2.17016 10.6598 1.75019 11.7523 1.75968C12.8448 1.76917 13.8898 2.20738 14.6624 2.97991C15.4349 3.75244 15.8731 4.7975 15.8826 5.88998C15.8921 6.98247 15.4721 8.03498 14.7131 8.82082L9.99979 13.5367C9.76757 13.7688 9.4919 13.953 9.18851 14.0786C8.88512 14.2042 8.55995 14.2689 8.23158 14.2688C7.90321 14.2688 7.57806 14.2041 7.2747 14.0784C6.97134 13.9527 6.69571 13.7685 6.46354 13.5362C6.23137 13.304 6.04722 13.0283 5.9216 12.725C5.79597 12.4216 5.73133 12.0964 5.73137 11.768C5.73141 11.4397 5.79612 11.1145 5.92182 10.8111C6.04752 10.5078 6.23174 10.2322 6.46396 9.99999L11.1781 5.28582L12.3565 6.46415Z" fill="#898989"/>
</svg>
