<svg width="22" height="22" viewBox="0 0 22 22" fill="none" xmlns="http://www.w3.org/2000/svg">
<path d="M11.7943 2.75016L20.5265 17.8752C20.6069 18.0145 20.6493 18.1726 20.6493 18.3335C20.6493 18.4944 20.607 18.6525 20.5265 18.7918C20.4461 18.9312 20.3303 19.0469 20.191 19.1273C20.0516 19.2078 19.8936 19.2502 19.7327 19.2502H2.26833C2.10742 19.2502 1.94935 19.2078 1.81 19.1273C1.67066 19.0469 1.55494 18.9312 1.47449 18.7918C1.39404 18.6525 1.35168 18.4944 1.35168 18.3335C1.35169 18.1726 1.39404 18.0145 1.47449 17.8752L10.2067 2.75016C10.2871 2.61082 10.4028 2.49512 10.5422 2.41467C10.6815 2.33422 10.8396 2.29187 11.0005 2.29187C11.1614 2.29187 11.3195 2.33422 11.4588 2.41467C11.5982 2.49512 11.7139 2.61082 11.7943 2.75016ZM3.85599 17.4168H18.145L11.0005 5.04183L3.85599 17.4168ZM10.0838 14.6668H11.9172V16.5002H10.0838V14.6668ZM10.0838 8.25016H11.9172V12.8335H10.0838V8.25016Z" fill="white"/>
</svg>
