<svg width="22" height="22" viewBox="0 0 22 22" fill="none" xmlns="http://www.w3.org/2000/svg">
<g opacity="0.3">
<path d="M3.06172 15.5833C2.67422 14.9132 2.373 14.1968 2.16522 13.4511C2.61742 13.2211 2.99718 12.8705 3.2625 12.4381C3.52781 12.0057 3.66834 11.5083 3.66853 11.001C3.66872 10.4937 3.52857 9.99616 3.26357 9.56354C2.99858 9.13092 2.61908 8.78004 2.16706 8.54971C2.58142 7.05141 3.37039 5.68325 4.45964 4.57413C4.88506 4.85071 5.37871 5.00419 5.88595 5.01759C6.3932 5.03099 6.89426 4.90379 7.33369 4.65006C7.77312 4.39632 8.13378 4.02596 8.37575 3.57995C8.61773 3.13394 8.73159 2.62967 8.70472 2.12296C10.21 1.73395 11.7895 1.73458 13.2945 2.12479C13.2678 2.63149 13.3819 3.13568 13.6241 3.58157C13.8662 4.02745 14.227 4.39764 14.6666 4.65118C15.1061 4.90472 15.6072 5.03171 16.1144 5.01812C16.6216 5.00452 17.1152 4.85085 17.5405 4.57413C18.0712 5.11496 18.5424 5.73004 18.9384 6.41663C19.3353 7.10321 19.6323 7.81913 19.8349 8.54879C19.3827 8.77879 19.0029 9.12939 18.7376 9.56181C18.4723 9.99423 18.3318 10.4916 18.3316 10.9989C18.3314 11.5063 18.4715 12.0038 18.7365 12.4364C19.0015 12.869 19.381 13.2199 19.8331 13.4502C19.4187 14.9485 18.6297 16.3167 17.5405 17.4258C17.1151 17.1492 16.6214 16.9957 16.1142 16.9823C15.6069 16.9689 15.1058 17.0961 14.6664 17.3499C14.227 17.6036 13.8663 17.974 13.6244 18.42C13.3824 18.866 13.2685 19.3702 13.2954 19.877C11.7901 20.266 10.2106 20.2653 8.70564 19.8751C8.73226 19.3684 8.61819 18.8642 8.37602 18.4184C8.13386 17.9725 7.77306 17.6023 7.33355 17.3487C6.89403 17.0952 6.39294 16.9682 5.88572 16.9818C5.3785 16.9954 4.88494 17.1491 4.45964 17.4258C3.91788 16.873 3.44818 16.2539 3.06172 15.5833ZM8.25006 15.763C9.22688 16.3264 9.96133 17.2306 10.3126 18.3021C10.77 18.3452 11.2292 18.3461 11.6866 18.303C12.0381 17.2313 12.7729 16.3271 13.7501 15.7639C14.7265 15.1989 15.8772 15.0145 16.9813 15.246C17.2471 14.872 17.4763 14.4732 17.667 14.0561C16.9148 13.2159 16.4992 12.1277 16.5001 11C16.5001 9.84496 16.9309 8.76604 17.667 7.94379C17.475 7.52685 17.2448 7.12854 16.9795 6.75396C15.8761 6.98524 14.7261 6.80115 13.7501 6.23696C12.7732 5.67355 12.0388 4.76936 11.6876 3.69779C11.2301 3.65471 10.7709 3.65379 10.3135 3.69688C9.96202 4.76859 9.22723 5.67281 8.25006 6.23604C7.27361 6.801 6.12291 6.98544 5.01881 6.75396C4.75349 7.12822 4.52393 7.52658 4.33314 7.94379C5.08533 8.78397 5.50087 9.87227 5.50006 11C5.50006 12.155 5.06922 13.2339 4.33314 14.0561C4.52515 14.4731 4.7553 14.8714 5.02064 15.246C6.12405 15.0147 7.274 15.1988 8.25006 15.763ZM11.0001 13.75C10.2707 13.75 9.57124 13.4602 9.05551 12.9445C8.53979 12.4288 8.25006 11.7293 8.25006 11C8.25006 10.2706 8.53979 9.57114 9.05551 9.05542C9.57124 8.53969 10.2707 8.24996 11.0001 8.24996C11.7294 8.24996 12.4289 8.53969 12.9446 9.05542C13.4603 9.57114 13.7501 10.2706 13.7501 11C13.7501 11.7293 13.4603 12.4288 12.9446 12.9445C12.4289 13.4602 11.7294 13.75 11.0001 13.75ZM11.0001 11.9166C11.2432 11.9166 11.4763 11.82 11.6482 11.6481C11.8201 11.4762 11.9167 11.2431 11.9167 11C11.9167 10.7568 11.8201 10.5237 11.6482 10.3518C11.4763 10.1799 11.2432 10.0833 11.0001 10.0833C10.7569 10.0833 10.5238 10.1799 10.3519 10.3518C10.18 10.5237 10.0834 10.7568 10.0834 11C10.0834 11.2431 10.18 11.4762 10.3519 11.6481C10.5238 11.82 10.7569 11.9166 11.0001 11.9166Z" fill="black"/>
</g>
</svg>
