<svg width="22" height="22" viewBox="0 0 22 22" fill="none" xmlns="http://www.w3.org/2000/svg">
<path d="M10.9985 20.0285C6.01244 20.0285 1.9707 15.9867 1.9707 11.0007C1.9707 6.01464 6.01244 1.9729 10.9985 1.9729C15.9845 1.9729 20.0263 6.01464 20.0263 11.0007C20.0263 15.9867 15.9845 20.0285 10.9985 20.0285ZM7.38737 12.8062V14.6118H14.6096V12.8062H7.38737ZM7.38737 10.0979C7.74652 10.0979 8.09095 9.95523 8.34491 9.70127C8.59887 9.44732 8.74154 9.10288 8.74154 8.74373C8.74154 8.38459 8.59887 8.04015 8.34491 7.78619C8.09095 7.53224 7.74652 7.38957 7.38737 7.38957C7.02822 7.38957 6.68378 7.53224 6.42983 7.78619C6.17587 8.04015 6.0332 8.38459 6.0332 8.74373C6.0332 9.10288 6.17587 9.44732 6.42983 9.70127C6.68378 9.95523 7.02822 10.0979 7.38737 10.0979ZM14.6096 10.0979C14.9687 10.0979 15.3132 9.95523 15.5671 9.70127C15.8211 9.44732 15.9638 9.10288 15.9638 8.74373C15.9638 8.38459 15.8211 8.04015 15.5671 7.78619C15.3132 7.53224 14.9687 7.38957 14.6096 7.38957C14.2504 7.38957 13.906 7.53224 13.6521 7.78619C13.3981 8.04015 13.2554 8.38459 13.2554 8.74373C13.2554 9.10288 13.3981 9.44732 13.6521 9.70127C13.906 9.95523 14.2504 10.0979 14.6096 10.0979Z" fill="#FFB436"/>
</svg>
