<svg width="22" height="22" viewBox="0 0 22 22" fill="none" xmlns="http://www.w3.org/2000/svg">
<path d="M1.83331 8.24451C1.83283 7.52236 1.9748 6.80721 2.2511 6.14001C2.5274 5.47281 2.93259 4.86667 3.44348 4.35629C3.95437 3.84591 4.56092 3.44132 5.2284 3.16569C5.89588 2.89006 6.61117 2.7488 7.33331 2.75001H14.6666C17.7036 2.75001 20.1666 5.22042 20.1666 8.24451V19.25H7.33331C4.2964 19.25 1.83331 16.7796 1.83331 13.7555V8.24451ZM18.3333 17.4167V8.24451C18.3309 7.2733 17.9436 6.34264 17.2564 5.65641C16.5691 4.97017 15.6379 4.58431 14.6666 4.58334H7.33331C6.85192 4.58213 6.37503 4.67597 5.92999 4.85946C5.48494 5.04296 5.08049 5.31251 4.73984 5.65265C4.39919 5.99278 4.12904 6.39683 3.94488 6.8416C3.76071 7.28637 3.66616 7.76312 3.66665 8.24451V13.7555C3.66907 14.7267 4.05633 15.6574 4.7436 16.3436C5.43087 17.0298 6.3621 17.4157 7.33331 17.4167H18.3333ZM12.8333 10.0833H14.6666V11.9167H12.8333V10.0833ZM7.33331 10.0833H9.16665V11.9167H7.33331V10.0833Z" fill="#00B533"/>
</svg>
