<svg width="20" height="20" viewBox="0 0 20 20" fill="none" xmlns="http://www.w3.org/2000/svg">
<path d="M14.1666 2.50004H17.5C17.721 2.50004 17.9329 2.58784 18.0892 2.74412C18.2455 2.9004 18.3333 3.11236 18.3333 3.33337V16.6667C18.3333 16.8877 18.2455 17.0997 18.0892 17.256C17.9329 17.4122 17.721 17.5 17.5 17.5H2.49996C2.27895 17.5 2.06698 17.4122 1.9107 17.256C1.75442 17.0997 1.66663 16.8877 1.66663 16.6667V3.33337C1.66663 3.11236 1.75442 2.9004 1.9107 2.74412C2.06698 2.58784 2.27895 2.50004 2.49996 2.50004H5.83329V0.833374H7.49996V2.50004H12.5V0.833374H14.1666V2.50004ZM12.5 4.16671H7.49996V5.83337H5.83329V4.16671H3.33329V7.50004H16.6666V4.16671H14.1666V5.83337H12.5V4.16671ZM16.6666 9.16671H3.33329V15.8334H16.6666V9.16671Z" fill="black"/>
</svg>
