<svg width="20" height="20" viewBox="0 0 20 20" fill="none" xmlns="http://www.w3.org/2000/svg">
<path d="M9.99991 14.1666C13.0516 14.1666 15.7207 15.4791 17.1724 17.4375L15.6374 18.1633C14.4557 16.7633 12.3724 15.8333 9.99991 15.8333C7.62741 15.8333 5.54408 16.7633 4.36241 18.1633L2.82825 17.4366C4.27991 15.4783 6.94825 14.1666 9.99991 14.1666ZM9.99991 1.66663C11.105 1.66663 12.1648 2.10561 12.9462 2.88701C13.7276 3.66842 14.1666 4.72822 14.1666 5.83329V8.33329C14.1665 9.40701 13.752 10.4393 13.0094 11.2148C12.2668 11.9903 11.2535 12.4492 10.1807 12.4958L9.99991 12.5C8.89485 12.5 7.83504 12.061 7.05364 11.2796C6.27223 10.4982 5.83325 9.43836 5.83325 8.33329V5.83329C5.83331 4.75957 6.24786 3.72732 6.99046 2.95181C7.73306 2.1763 8.74637 1.71739 9.81908 1.67079L9.99991 1.66663ZM9.99991 3.33329C9.36224 3.33326 8.74865 3.5769 8.2847 4.01436C7.82074 4.45183 7.54149 5.05005 7.50408 5.68663L7.49991 5.83329V8.33329C7.49929 8.98405 7.75243 9.6094 8.20556 10.0765C8.65868 10.5435 9.27608 10.8155 9.92655 10.8346C10.577 10.8537 11.2093 10.6184 11.6891 10.1787C12.1688 9.73906 12.4582 9.12963 12.4957 8.47996L12.4999 8.33329V5.83329C12.4999 5.17025 12.2365 4.53437 11.7677 4.06553C11.2988 3.59669 10.663 3.33329 9.99991 3.33329Z" fill="black"/>
</svg>
