<svg width="22" height="22" viewBox="0 0 22 22" fill="none" xmlns="http://www.w3.org/2000/svg">
<g opacity="0.3">
<path d="M15.5834 8.43329L20.3619 5.08746C20.4306 5.03929 20.5113 5.01092 20.595 5.00542C20.6787 4.99992 20.7624 5.01752 20.8368 5.05629C20.9112 5.09506 20.9735 5.15351 21.017 5.22528C21.0605 5.29705 21.0834 5.37938 21.0834 5.46329V16.5366C21.0834 16.6205 21.0605 16.7029 21.017 16.7746C20.9735 16.8464 20.9112 16.9049 20.8368 16.9436C20.7624 16.9824 20.6787 17 20.595 16.9945C20.5113 16.989 20.4306 16.9606 20.3619 16.9125L15.5834 13.5666V17.4166C15.5834 17.6597 15.4868 17.8929 15.3149 18.0648C15.143 18.2367 14.9098 18.3333 14.6667 18.3333H1.83335C1.59024 18.3333 1.35708 18.2367 1.18517 18.0648C1.01326 17.8929 0.916687 17.6597 0.916687 17.4166V4.58329C0.916687 4.34018 1.01326 4.10702 1.18517 3.93511C1.35708 3.7632 1.59024 3.66663 1.83335 3.66663H14.6667C14.9098 3.66663 15.143 3.7632 15.3149 3.93511C15.4868 4.10702 15.5834 4.34018 15.5834 4.58329V8.43329ZM15.5834 11.329L19.25 13.8957V8.10329L15.5834 10.67V11.3281V11.329ZM2.75002 5.49996V16.5H13.75V5.49996H2.75002ZM4.58335 7.33329H6.41669V9.16663H4.58335V7.33329Z" fill="black"/>
</g>
</svg>
